#Comment line ignore any data following # character 
#Hierarchical Translation and Rotation (.htr) file 
[Header]	
#Header keywords are followed by a single value 
FileType HTR		#Single word string
DataType HTRS		#Translation followed by rotation and scale data
FileVersion 1		#integer
NumSegments 64		#integer
NumFrames 3		#integer
DataFrameRate 30		#integer, data frame rate in this file
EulerRotationOrder ZYX
CalibrationUnits mm
RotationUnits Degrees
GlobalAxisofGravity Y
BoneLengthAxis Y
ScaleFactor 1.00
[SegmentNames&Hierarchy]
#CHILD	PARENT
Pinger_Root GLOBAL
Pelvis Pinger_Root
L_Hip Pelvis
R_Hip Pelvis
Rear_Leg01 Pelvis
Spine1 Pelvis
L_Leg01 L_Hip
L_Leg02 L_Leg01
L_Leg03 L_Leg02
L_Foot L_Leg03
L_Toe1_01 L_Foot
L_Toe2_01 L_Foot
L_Toe3_01 L_Foot
planeAlignerLeft L_Foot
L_Toe1_02 L_Toe1_01
L_Toe1_03 L_Toe1_02
L_Toe2_02 L_Toe2_01
L_Toe2_03 L_Toe2_02
L_Toe3_02 L_Toe3_01
L_Toe3_03 L_Toe3_02
planeLockWeightLeft planeAlignerLeft
R_Leg01 R_Hip
R_Leg02 R_Leg01
R_Leg03 R_Leg02
R_Foot R_Leg03
planeAlignerRight R_Foot
R_Toe1_01 R_Foot
R_Toe2_01 R_Foot
R_Toe3_01 R_Foot
planeLockWeightRight planeAlignerRight
R_Toe1_02 R_Toe1_01
R_Toe1_03 R_Toe1_02
R_Toe2_02 R_Toe2_01
R_Toe2_03 R_Toe2_02
R_Toe3_02 R_Toe3_01
R_Toe3_03 R_Toe3_02
Rear_Leg02 Rear_Leg01
Rear_Leg03 Rear_Leg02
Rear_Leg04 Rear_Leg03
Rear_Foot Rear_Leg04
planeAlignerCenter Rear_Foot
Rear_Toe1_01 Rear_Foot
Rear_Toe2_01 Rear_Foot
Rear_Toe3_01 Rear_Foot
planeLockWeightCenter planeAlignerCenter
Rear_Toe1_02 Rear_Toe1_01
Rear_Toe1_03 Rear_Toe1_02
Rear_Toe2_02 Rear_Toe2_01
Rear_Toe2_03 Rear_Toe2_02
Rear_Toe3_02 Rear_Toe3_01
Rear_Toe3_03 Rear_Toe3_02
Back_Bone Spine1
Head Spine1
Motor_Bone Back_Bone
Ping_Mechanism Back_Bone
BN_LookIK Head
bottomMouth Head
L_Mouth01 Head
L_mouthFront Head
mouthGun Head
R_Mouth01 Head
R_mouthFront Head
TopMouth Head
weapon_bone Head
[BasePosition]
#SegmentName Tx, Ty, Tz, Rx, Ry, Rz, BoneLength
Pinger_Root 0.000000 0.000000 0.000000 -90.000000 0.000000 0.000000 10.000000 
Pelvis 0.000000 0.000000 0.000000 0.000000 0.000000 0.000000 10.000000 
L_Hip 0.000000 0.000000 0.000000 0.000000 0.000000 0.000000 10.000000 
R_Hip 0.000000 0.000000 0.000000 0.000000 0.000000 0.000000 10.000000 
Rear_Leg01 0.000000 0.000000 0.000000 0.000000 0.000000 0.000000 10.000000 
Spine1 0.000000 0.000000 0.000000 0.000000 0.000000 0.000000 10.000000 
L_Leg01 0.000000 0.000000 0.000000 0.000000 0.000000 0.000000 10.000000 
L_Leg02 0.000000 0.000000 0.000000 0.000000 0.000000 0.000000 10.000000 
L_Leg03 0.000000 0.000000 0.000000 0.000000 0.000000 0.000000 10.000000 
L_Foot 0.000000 0.000000 0.000000 0.000000 0.000000 0.000000 10.000000 
L_Toe1_01 0.000000 0.000000 0.000000 0.000000 0.000000 0.000000 10.000000 
L_Toe2_01 0.000000 0.000000 0.000000 0.000000 0.000000 0.000000 10.000000 
L_Toe3_01 0.000000 0.000000 0.000000 0.000000 0.000000 0.000000 10.000000 
planeAlignerLeft 0.000000 0.000000 0.000000 0.000000 0.000000 0.000000 10.000000 
L_Toe1_02 0.000000 0.000000 0.000000 0.000000 0.000000 0.000000 10.000000 
L_Toe1_03 0.000000 0.000000 0.000000 0.000000 0.000000 0.000000 10.000000 
L_Toe2_02 0.000000 0.000000 0.000000 0.000000 0.000000 0.000000 10.000000 
L_Toe2_03 0.000000 0.000000 0.000000 0.000000 0.000000 0.000000 10.000000 
L_Toe3_02 0.000000 0.000000 0.000000 0.000000 0.000000 0.000000 10.000000 
L_Toe3_03 0.000000 0.000000 0.000000 0.000000 0.000000 0.000000 10.000000 
planeLockWeightLeft 0.000000 0.000000 0.000000 0.000000 0.000000 0.000000 10.000000 
R_Leg01 0.000000 0.000000 0.000000 0.000000 0.000000 0.000000 10.000000 
R_Leg02 0.000000 0.000000 0.000000 0.000000 0.000000 0.000000 10.000000 
R_Leg03 0.000000 0.000000 0.000000 0.000000 0.000000 0.000000 10.000000 
R_Foot 0.000000 0.000000 0.000000 0.000000 0.000000 0.000000 10.000000 
planeAlignerRight 0.000000 0.000000 0.000000 0.000000 0.000000 0.000000 10.000000 
R_Toe1_01 0.000000 0.000000 0.000000 0.000000 0.000000 0.000000 10.000000 
R_Toe2_01 0.000000 0.000000 0.000000 0.000000 0.000000 0.000000 10.000000 
R_Toe3_01 0.000000 0.000000 0.000000 0.000000 0.000000 0.000000 10.000000 
planeLockWeightRight 0.000000 0.000000 0.000000 0.000000 0.000000 0.000000 10.000000 
R_Toe1_02 0.000000 0.000000 0.000000 0.000000 0.000000 0.000000 10.000000 
R_Toe1_03 0.000000 0.000000 0.000000 0.000000 0.000000 0.000000 10.000000 
R_Toe2_02 0.000000 0.000000 0.000000 0.000000 0.000000 0.000000 10.000000 
R_Toe2_03 0.000000 0.000000 0.000000 0.000000 0.000000 0.000000 10.000000 
R_Toe3_02 0.000000 0.000000 0.000000 0.000000 0.000000 0.000000 10.000000 
R_Toe3_03 0.000000 0.000000 0.000000 0.000000 0.000000 0.000000 10.000000 
Rear_Leg02 0.000000 0.000000 0.000000 0.000000 0.000000 0.000000 10.000000 
Rear_Leg03 0.000000 0.000000 0.000000 0.000000 0.000000 0.000000 10.000000 
Rear_Leg04 0.000000 0.000000 0.000000 0.000000 0.000000 0.000000 10.000000 
Rear_Foot 0.000000 0.000000 0.000000 0.000000 0.000000 0.000000 10.000000 
planeAlignerCenter 0.000000 0.000000 0.000000 0.000000 0.000000 0.000000 10.000000 
Rear_Toe1_01 0.000000 0.000000 0.000000 0.000000 0.000000 0.000000 10.000000 
Rear_Toe2_01 0.000000 0.000000 0.000000 0.000000 0.000000 0.000000 10.000000 
Rear_Toe3_01 0.000000 0.000000 0.000000 0.000000 0.000000 0.000000 10.000000 
planeLockWeightCenter 0.000000 0.000000 0.000000 0.000000 0.000000 0.000000 10.000000 
Rear_Toe1_02 0.000000 0.000000 0.000000 0.000000 0.000000 0.000000 10.000000 
Rear_Toe1_03 0.000000 0.000000 0.000000 0.000000 0.000000 0.000000 10.000000 
Rear_Toe2_02 0.000000 0.000000 0.000000 0.000000 0.000000 0.000000 10.000000 
Rear_Toe2_03 0.000000 0.000000 0.000000 0.000000 0.000000 0.000000 10.000000 
Rear_Toe3_02 0.000000 0.000000 0.000000 0.000000 0.000000 0.000000 10.000000 
Rear_Toe3_03 0.000000 0.000000 0.000000 0.000000 0.000000 0.000000 10.000000 
Back_Bone 0.000000 0.000000 0.000000 0.000000 0.000000 0.000000 10.000000 
Head 0.000000 0.000000 0.000000 0.000000 0.000000 0.000000 10.000000 
Motor_Bone 0.000000 0.000000 0.000000 0.000000 0.000000 0.000000 10.000000 
Ping_Mechanism 0.000000 0.000000 0.000000 0.000000 0.000000 0.000000 10.000000 
BN_LookIK 0.000000 0.000000 0.000000 0.000000 0.000000 0.000000 10.000000 
bottomMouth 0.000000 0.000000 0.000000 0.000000 0.000000 0.000000 10.000000 
L_Mouth01 0.000000 0.000000 0.000000 0.000000 0.000000 0.000000 10.000000 
L_mouthFront 0.000000 0.000000 0.000000 0.000000 0.000000 0.000000 10.000000 
mouthGun 0.000000 0.000000 0.000000 0.000000 0.000000 0.000000 10.000000 
R_Mouth01 0.000000 0.000000 0.000000 0.000000 0.000000 0.000000 10.000000 
R_mouthFront 0.000000 0.000000 0.000000 0.000000 0.000000 0.000000 10.000000 
TopMouth 0.000000 0.000000 0.000000 0.000000 0.000000 0.000000 10.000000 
weapon_bone 0.000000 0.000000 0.000000 0.000000 0.000000 0.000000 10.000000 
#Beginning of Data. Separated by tabs
#Fr	Tx	Ty	Tz	Rx	Ry	Rz	SF
[Pinger_Root]
20 0.000000 0.000000 0.000000 -0.000075 -0.000000 -0.000020 0.000000
21 0.000000 0.000000 0.000000 -0.000075 -0.000000 -0.000020 0.000000
22 0.000000 0.000000 0.000000 -0.000075 -0.000000 -0.000020 0.000000
[Pelvis]
20 -262.897369 2032.719116 3532.102783 -17.504251 -84.892891 3.998860 4083.725098
21 -262.327728 2023.047974 3518.762939 -19.709560 -85.444740 6.206108 4067.336914
22 -262.042847 2018.375122 3500.070068 -18.166142 -85.067039 4.657227 4048.826416
[L_Hip]
20 5.766392 125.831482 872.656799 172.961731 -43.422859 113.649780 881.701050
21 5.766392 125.831482 872.656799 172.961731 -43.422859 113.649780 881.701050
22 5.766392 125.831482 872.656799 172.961731 -43.422848 113.649773 881.701050
[R_Hip]
20 5.765438 125.836372 -872.654907 -91.997169 64.413795 -16.840088 881.699829
21 5.765438 125.836372 -872.654907 -93.709763 64.090439 -18.663511 881.699829
22 5.765438 125.836372 -872.654907 -94.868538 63.845097 -19.940361 881.699829
[Rear_Leg01]
20 -192.298416 -925.602966 -0.001907 178.557465 20.987825 -127.160637 945.367432
21 -192.298416 -925.602966 -0.001907 178.074783 20.637213 -127.289566 945.367432
22 -192.298416 -925.602966 -0.001907 178.521805 20.929579 -126.997932 945.367432
[Spine1]
20 290.604584 5.007505 0.000477 2.534973 -15.391231 40.524174 290.647736
21 290.604584 5.007505 0.000477 2.939188 -14.831073 40.359138 290.647736
22 290.604584 5.007505 0.000477 2.696037 -15.027264 40.379181 290.647736
[L_Leg01]
20 761.932007 -0.002384 -0.069261 47.846302 9.978188 -43.560902 761.932068
21 761.932007 -0.002384 -0.069261 48.386078 8.221604 -40.597961 761.932068
22 761.932007 -0.002384 -0.069261 48.468739 6.119437 -39.025848 761.932068
[L_Leg02]
20 1441.140503 -0.000954 -0.000715 6.458785 2.169790 -107.388474 1441.140503
21 1441.140503 -0.000954 -0.000715 6.619310 2.328843 -113.462952 1441.140503
22 1441.140503 -0.000954 -0.000715 6.655335 2.376307 -117.873901 1441.140503
[L_Leg03]
20 1686.963989 -0.000715 -0.000954 -0.111845 0.068764 140.936768 1686.963989
21 1686.963989 -0.000715 -0.000954 -0.117783 0.072387 141.534439 1686.963989
22 1686.963989 -0.000715 -0.000954 -0.117818 0.072330 141.479446 1686.963989
[L_Foot]
20 3041.570068 -30.715107 11.297464 -20.408173 41.728477 36.917477 3041.746094
21 3041.570068 -30.715107 11.297464 -20.575245 41.392410 38.987976 3041.746094
22 3041.570068 -30.715107 11.297464 -20.614344 41.142719 40.668346 3041.746094
[L_Toe1_01]
20 -188.216690 -224.732346 -21.137953 94.188957 -7.486376 179.914749 293.899567
21 -188.216690 -224.732346 -21.137953 94.189079 -7.487970 179.914474 293.899567
22 -188.216690 -224.732346 -21.137953 94.189201 -7.489563 179.914215 293.899567
[L_Toe2_01]
20 200.746536 -219.926590 148.838394 -98.193222 -36.571735 -34.803730 332.896027
21 200.746536 -219.926590 148.838394 -98.193222 -36.571735 -34.803730 332.896027
22 200.746536 -219.926590 148.838394 -98.193222 -36.571735 -34.803730 332.896027
[L_Toe3_01]
20 188.832520 -219.859131 -191.078659 -96.679802 25.038570 -61.562389 347.140900
21 188.832520 -219.859131 -191.078659 -96.679802 25.038572 -61.562389 347.140900
22 188.832520 -219.859131 -191.078659 -96.679794 25.038570 -61.562389 347.140900
[planeAlignerLeft]
20 0.812531 -811.448792 -0.314951 0.000000 -90.000000 -90.001900 811.449280
21 0.812531 -811.448792 -0.314951 0.000000 -90.000000 -90.001900 811.449280
22 0.812531 -811.448792 -0.314951 0.000000 -90.000000 -90.001900 811.449280
[L_Toe1_02]
20 413.761139 0.000477 0.000000 0.001661 0.069290 0.001661 413.761139
21 413.761139 0.000477 0.000000 0.001661 0.069167 0.001661 413.761139
22 413.761139 0.000477 0.000000 0.001661 0.069043 0.001661 413.761139
[L_Toe1_03]
20 464.317322 0.000358 -0.000089 0.001673 -0.448396 -0.003292 464.317322
21 464.317322 0.000358 -0.000089 0.001673 -0.448396 -0.003292 464.317322
22 464.317322 0.000358 -0.000089 0.001673 -0.448396 -0.003292 464.317322
[L_Toe2_02]
20 342.235809 -0.000477 0.000238 0.004684 -81.207756 0.004684 342.235809
21 342.235809 -0.000477 0.000238 0.004684 -81.208244 0.004684 342.235809
22 342.235809 -0.000477 0.000238 0.004684 -81.208710 0.004684 342.235809
[L_Toe2_03]
20 420.210846 -0.000715 0.000000 179.993240 43.061142 -179.999130 420.210846
21 420.210846 -0.000715 0.000000 179.993240 43.061138 -179.999130 420.210846
22 420.210846 -0.000715 0.000000 179.993240 43.061138 -179.999130 420.210846
[L_Toe3_02]
20 329.270111 0.000954 0.000000 0.004676 -84.586296 0.004676 329.270111
21 329.270111 0.000954 0.000000 0.004676 -84.586296 0.004676 329.270111
22 329.270111 0.000954 0.000000 0.004675 -84.586227 0.004675 329.270111
[L_Toe3_03]
20 439.137451 -0.001907 0.000954 179.993500 35.788990 -179.998657 439.137451
21 439.137451 -0.001907 0.000954 179.993500 35.788990 -179.998657 439.137451
22 439.137451 -0.001907 0.000954 179.993500 35.788990 -179.998657 439.137451
[planeLockWeightLeft]
20 -0.000954 0.000238 -0.000305 -0.011826 -0.004376 0.005620 0.001029
21 -0.000954 0.000238 -0.000305 -0.011826 -0.004376 0.005620 0.001029
22 -0.000954 0.000238 -0.000305 -0.011826 -0.004376 0.005620 0.001029
[R_Leg01]
20 761.455627 -0.001907 -0.000358 114.299843 -4.262532 81.000191 761.455688
21 761.455627 -0.001907 -0.000358 113.003845 -4.305922 82.136757 761.455688
22 761.455627 -0.001907 -0.000358 111.652626 -5.440555 81.664001 761.455688
[R_Leg02]
20 1441.140625 0.000000 -0.000238 -1.734041 -0.429498 -111.385414 1441.140625
21 1441.140625 0.000000 -0.000238 -1.715110 -0.401273 -110.491585 1441.140625
22 1441.140625 0.000000 -0.000238 -1.783475 -0.463479 -112.458481 1441.140625
[R_Leg03]
20 1686.963989 0.000954 0.001431 0.099204 -0.058383 136.991943 1686.963989
21 1686.963989 0.000954 0.001431 0.099312 -0.058199 136.779236 1686.963989
22 1686.963989 0.000954 0.001431 0.101051 -0.059819 137.561630 1686.963989
[R_Foot]
20 3041.560059 -30.531288 -11.204481 4.038654 9.171083 50.843006 3041.734131
21 3041.560059 -30.531288 -11.204481 3.989031 8.479119 50.306488 3041.734131
22 3041.560059 -30.531288 -11.204481 4.103521 7.831838 50.670315 3041.734131
[planeAlignerRight]
20 -0.635147 -812.270569 -0.364304 0.000000 -89.960434 -90.005180 812.270874
21 -0.635147 -812.270569 -0.364304 0.000000 -89.960434 -90.005180 812.270874
22 -0.635147 -812.270569 -0.364304 0.000000 -89.960434 -90.005180 812.270874
[R_Toe1_01]
20 -188.383347 -224.864899 21.052242 77.501556 2.583973 -171.437714 294.101532
21 -188.383347 -224.864899 21.052242 77.501549 2.584055 -171.437820 294.101532
22 -188.383347 -224.864899 21.052242 77.501549 2.584137 -171.437912 294.101532
[R_Toe2_01]
20 200.637817 -220.002121 -148.787384 -87.001488 41.724060 -47.416241 332.857574
21 200.637817 -220.002121 -148.787384 -87.001472 41.724453 -47.416077 332.857574
22 200.637817 -220.002121 -148.787384 -87.001450 41.724842 -47.415913 332.857574
[R_Toe3_01]
20 188.606735 -220.092957 191.126343 -74.774216 -14.746100 -63.949135 347.192566
21 188.606735 -220.092957 191.126343 -74.774223 -14.746105 -63.949135 347.192566
22 188.606735 -220.092957 191.126343 -74.774231 -14.746103 -63.949142 347.192566
[planeLockWeightRight]
20 -0.000477 0.000000 0.000000 -0.011823 -0.004379 -0.000027 0.000477
21 -0.000477 0.000000 0.000000 -0.011823 -0.004379 -0.000027 0.000477
22 -0.000477 0.000000 0.000000 -0.011823 -0.004379 -0.000027 0.000477
[R_Toe1_02]
20 413.762085 0.000477 -0.000119 0.001417 -21.808466 0.001417 413.762085
21 413.762085 0.000477 -0.000119 0.001417 -21.807436 0.001417 413.762085
22 413.762085 0.000477 -0.000119 0.001417 -21.806400 0.001417 413.762085
[R_Toe1_03]
20 464.317810 0.000000 0.001088 0.000898 28.940256 -0.003161 464.317810
21 464.317810 0.000000 0.001088 0.000899 28.929577 -0.003161 464.317810
22 464.317810 0.000000 0.001088 0.000899 28.918892 -0.003161 464.317810
[R_Toe2_02]
20 342.234741 -0.000954 0.000238 -0.002334 -78.762039 -0.002334 342.234741
21 342.234741 -0.000954 0.000238 -0.002334 -78.759201 -0.002334 342.234741
22 342.234741 -0.000954 0.000238 -0.002334 -78.756416 -0.002334 342.234741
[R_Toe2_03]
20 420.210846 0.000715 -0.000268 -179.994690 71.300629 -179.998230 420.210846
21 420.210846 0.000715 -0.000268 -179.994690 71.300629 -179.998230 420.210846
22 420.210846 0.000715 -0.000268 -179.994690 71.300629 -179.998230 420.210846
[R_Toe3_02]
20 329.270355 -0.000477 -0.000954 0.001175 -84.045792 0.001175 329.270355
21 329.270355 -0.000477 -0.000954 0.001175 -84.046356 0.001175 329.270355
22 329.270355 -0.000477 -0.000954 0.001175 -84.047050 0.001175 329.270355
[R_Toe3_03]
20 439.137939 0.000238 0.001431 -179.995331 57.503616 -179.988052 439.137939
21 439.137939 0.000238 0.001431 -179.995331 57.503445 -179.988052 439.137939
22 439.137939 0.000238 0.001431 -179.995331 57.503315 -179.988052 439.137939
[Rear_Leg02]
20 1162.777710 -0.029802 0.005960 7.234343 17.898951 -73.048584 1162.777710
21 1162.777710 -0.029802 0.005960 6.870116 17.798262 -74.019997 1162.777710
22 1162.777710 -0.029802 0.005960 6.507937 17.691706 -74.990143 1162.777710
[Rear_Leg03]
20 607.192505 -0.013351 -0.073195 0.008797 0.003140 50.717381 607.192505
21 607.192505 -0.013351 -0.073195 0.008275 0.001994 51.111366 607.192505
22 607.192505 -0.013351 -0.073195 0.007744 0.000852 51.505356 607.192505
[Rear_Leg04]
20 995.874512 -0.020504 -0.011921 -0.033611 -0.013686 34.616375 995.874573
21 995.874512 -0.020504 -0.011921 -0.033688 -0.013498 35.256969 995.874573
22 995.874512 -0.020504 -0.011921 -0.033763 -0.013309 35.897583 995.874573
[Rear_Foot]
20 3096.176270 -0.067472 -0.041425 32.337246 65.663620 -116.973045 3096.176270
21 3096.176270 -0.067472 -0.041425 32.120995 65.853439 -117.270897 3096.176270
22 3096.176270 -0.067472 -0.041425 31.900682 66.042786 -117.572716 3096.176270
[planeAlignerCenter]
20 0.350077 0.966311 -838.790894 0.000009 0.000003 -179.999985 838.791565
21 0.350077 0.966311 -838.790894 0.000009 0.000003 -179.999985 838.791565
22 0.350077 0.966311 -838.790894 0.000009 0.000003 -179.999985 838.791565
[Rear_Toe1_01]
20 0.653352 83.966492 -371.173737 -30.751724 22.816858 86.597862 380.553192
21 0.653352 83.966492 -371.173737 -30.751724 22.816561 86.597740 380.553192
22 0.653352 83.966492 -371.173737 -30.751728 22.816265 86.597618 380.553192
[Rear_Toe2_01]
20 178.200760 -294.826019 -362.060547 -8.135868 -0.229519 -62.257580 499.765686
21 178.200760 -294.826019 -362.060547 -8.135928 -0.229762 -62.257572 499.765686
22 178.200760 -294.826019 -362.060547 -8.135989 -0.230003 -62.257557 499.765686
[Rear_Toe3_01]
20 -153.359680 -308.780914 -362.060852 3.734038 13.520378 -102.730438 499.952881
21 -153.359680 -308.780914 -362.060852 3.734063 13.520131 -102.730469 499.952881
22 -153.359680 -308.780914 -362.060852 3.734085 13.519879 -102.730499 499.952881
[planeLockWeightCenter]
20 -0.000062 0.000238 0.000000 -0.011814 -0.004373 -0.000015 0.000246
21 -0.000062 0.000238 0.000000 -0.011814 -0.004373 -0.000015 0.000246
22 -0.000062 0.000238 0.000000 -0.011814 -0.004373 -0.000015 0.000246
[Rear_Toe1_02]
20 379.707825 0.194073 0.000477 -0.006719 -30.028555 -0.006719 379.707855
21 379.707825 0.194073 0.000477 -0.006719 -30.028366 -0.006719 379.707855
22 379.707825 0.194073 0.000477 -0.006719 -30.028183 -0.006719 379.707855
[Rear_Toe1_03]
20 500.129700 0.165701 0.000119 -179.994797 70.679550 -179.998352 500.129761
21 500.129700 0.165701 0.000119 -179.994797 70.679329 -179.998352 500.129761
22 500.129700 0.165701 0.000119 -179.994797 70.679108 -179.998352 500.129761
[Rear_Toe2_02]
20 340.494507 0.000238 -0.000954 0.001661 0.062201 0.001661 340.494507
21 340.494507 0.000238 -0.000954 0.001661 0.062371 0.001661 340.494507
22 340.494507 0.000238 -0.000954 0.001661 0.062542 0.001661 340.494507
[Rear_Toe2_03]
20 433.103577 0.000000 0.000238 -0.003297 -0.804494 0.001683 433.103546
21 433.103577 0.000000 0.000238 -0.003297 -0.804494 0.001683 433.103546
22 433.103577 0.000000 0.000238 -0.003297 -0.804494 0.001683 433.103546
[Rear_Toe3_02]
20 340.494141 -0.000358 -0.000477 -0.002600 -36.670116 -0.002600 340.494171
21 340.494141 -0.000358 -0.000477 -0.002600 -36.670113 -0.002600 340.494171
22 340.494141 -0.000358 -0.000477 -0.002600 -36.670113 -0.002600 340.494171
[Rear_Toe3_03]
20 433.103577 0.001431 -0.000238 0.006396 30.730238 -0.001649 433.103546
21 433.103577 0.001431 -0.000238 0.006396 30.730234 -0.001649 433.103546
22 433.103577 0.001431 -0.000238 0.006396 30.730234 -0.001649 433.103546
[Back_Bone]
20 1312.175781 -701.934692 0.000954 17.653294 -24.177572 -91.321022 1488.125488
21 1312.175781 -701.934692 0.000954 17.313770 -24.300617 -88.963974 1488.125488
22 1312.175781 -701.934692 0.000954 16.956383 -24.394407 -86.975372 1488.125488
[Head]
20 1406.159424 809.709290 0.001431 -0.852580 -1.337260 42.862816 1622.625488
21 1406.159424 809.709290 0.001431 -0.809586 -1.364060 41.024460 1622.625488
22 1406.159424 809.709290 0.001431 -0.792753 -1.377553 40.249062 1622.625488
[Motor_Bone]
20 1158.364380 -417.834747 0.000477 -5.761946 -21.651033 -115.433746 1231.419434
21 1158.364380 -417.834747 0.000477 -8.295035 -19.255724 -114.167961 1231.419434
22 1158.364380 -417.834747 0.000477 -10.599420 -16.410860 -112.054893 1231.419434
[Ping_Mechanism]
20 1206.865845 -591.741150 21.404423 0.000103 -0.000053 82.120995 1344.299438
21 1205.894653 -593.699036 19.036263 0.000103 -0.000053 82.120995 1344.255493
22 1206.676392 -592.869751 20.494591 0.000103 -0.000053 82.120995 1344.612305
[BN_LookIK]
20 193.241119 1380.371704 -0.002861 0.000000 89.965736 -31.038179 1393.832153
21 193.241119 1380.371704 -0.002861 0.000000 89.965736 -31.038179 1393.832153
22 193.241119 1380.371704 -0.002861 0.000000 89.965736 -31.038179 1393.832153
[bottomMouth]
20 -435.092926 615.759399 -0.000954 -0.000022 0.000016 73.527184 753.966492
21 -435.092926 615.759399 -0.000954 -0.000022 0.000016 73.527184 753.966492
22 -435.092926 615.759399 -0.000954 -0.000022 0.000016 73.527184 753.966492
[L_Mouth01]
20 554.440979 7.658243 838.222046 150.204178 23.759130 109.605339 1005.027161
21 554.440979 7.658243 838.222046 150.204178 23.759130 109.605339 1005.027161
22 554.440979 7.658243 838.222046 150.204178 23.759130 109.605339 1005.027161
[L_mouthFront]
20 551.629089 934.514771 339.150421 0.000081 2.804060 79.119301 1136.941284
21 551.629089 934.514771 339.150421 0.000081 2.804060 79.119301 1136.941284
22 551.629089 934.514771 339.150421 0.000081 2.804060 79.119301 1136.941284
[mouthGun]
20 55.332661 1627.420898 0.000000 0.000023 0.000009 -11.038128 1628.361328
21 55.332661 1627.420898 0.000000 0.000023 0.000009 -11.038128 1628.361328
22 55.332661 1627.420898 0.000000 0.000023 0.000009 -11.038128 1628.361328
[R_Mouth01]
20 554.442383 7.659197 -838.223938 29.795891 -23.759109 109.605331 1005.029541
21 554.442383 7.659197 -838.223938 29.795891 -23.759109 109.605331 1005.029541
22 554.442383 7.659197 -838.223938 29.795891 -23.759109 109.605331 1005.029541
[R_mouthFront]
20 551.629089 934.514282 -339.151367 0.000029 -2.803930 79.119133 1136.941162
21 551.629089 934.514282 -339.151367 0.000029 -2.803930 79.119133 1136.941162
22 551.629089 934.514282 -339.151367 0.000029 -2.803930 79.119133 1136.941162
[TopMouth]
20 461.269867 -56.106091 -0.008583 -0.000059 -0.000268 92.025169 464.669525
21 461.269867 -56.106091 -0.008583 -0.000059 -0.000268 92.025169 464.669525
22 461.269867 -56.106091 -0.008583 -0.000059 -0.000268 92.025169 464.669525
[weapon_bone]
20 -987.239868 1448.372803 0.001431 0.000000 89.965736 -31.038221 1752.833740
21 -987.239868 1448.372803 0.001431 0.000000 89.965736 -31.038221 1752.833740
22 -987.239868 1448.372803 0.001431 0.000000 89.965736 -31.038221 1752.833740
